<svg width="887" height="182" viewBox="0 0 887 182" fill="none" xmlns="http://www.w3.org/2000/svg">
<g filter="url(#filter0_i_203_9)">
<path d="M95.4662 23.7143H0C6.929 25.8408 11.8049 34.3468 11.8049 43.916V163C21.3002 149.887 26.4328 132.52 26.4328 114.091V47.4602C26.4328 45.6881 27.4593 43.916 28.9991 43.916C30.2823 43.916 31.5654 45.3337 31.5654 47.4602V136.064C41.0607 122.951 46.1933 105.585 46.1933 87.1549V47.4602C46.1933 45.6881 47.2198 43.916 48.7596 43.916C50.0428 43.916 51.3259 45.3337 51.3259 47.4602V109.129L64.1574 91.4079C64.6706 90.699 64.9273 89.9902 65.1839 89.2814V88.9269C65.6972 87.8637 65.6972 86.8004 65.9538 85.3828C67.2369 62.3457 81.0949 43.916 98.2891 43.916H110.351L95.4662 23.7143Z" fill="#E82A2A"/>
</g>
<path d="M136.675 52.336C146.443 52.336 154.979 54.272 162.283 58.144C169.587 62.016 175.219 67.472 179.179 74.512C183.227 81.464 185.251 89.516 185.251 98.668C185.251 107.732 183.227 115.784 179.179 122.824C175.219 129.864 169.543 135.32 162.151 139.192C154.847 143.064 146.355 145 136.675 145H101.959V52.336H136.675ZM135.223 125.464C143.759 125.464 150.403 123.132 155.155 118.468C159.907 113.804 162.283 107.204 162.283 98.668C162.283 90.132 159.907 83.488 155.155 78.736C150.403 73.984 143.759 71.608 135.223 71.608H124.531V125.464H135.223ZM193.378 108.04C193.378 100.472 194.786 93.828 197.602 88.108C200.506 82.388 204.422 77.988 209.35 74.908C214.278 71.828 219.778 70.288 225.85 70.288C231.042 70.288 235.574 71.344 239.446 73.456C243.406 75.568 246.442 78.34 248.554 81.772V71.344H271.126V145H248.554V134.572C246.354 138.004 243.274 140.776 239.314 142.888C235.442 145 230.91 146.056 225.718 146.056C219.734 146.056 214.278 144.516 209.35 141.436C204.422 138.268 200.506 133.824 197.602 128.104C194.786 122.296 193.378 115.608 193.378 108.04ZM248.554 108.172C248.554 102.54 246.97 98.096 243.802 94.84C240.722 91.584 236.938 89.956 232.45 89.956C227.962 89.956 224.134 91.584 220.966 94.84C217.886 98.008 216.346 102.408 216.346 108.04C216.346 113.672 217.886 118.16 220.966 121.504C224.134 124.76 227.962 126.388 232.45 126.388C236.938 126.388 240.722 124.76 243.802 121.504C246.97 118.248 248.554 113.804 248.554 108.172ZM298.807 63.688C294.847 63.688 291.591 62.544 289.039 60.256C286.575 57.88 285.343 54.976 285.343 51.544C285.343 48.024 286.575 45.12 289.039 42.832C291.591 40.456 294.847 39.268 298.807 39.268C302.679 39.268 305.847 40.456 308.311 42.832C310.863 45.12 312.139 48.024 312.139 51.544C312.139 54.976 310.863 57.88 308.311 60.256C305.847 62.544 302.679 63.688 298.807 63.688ZM310.027 71.344V145H287.455V71.344H310.027ZM371.265 70.552C379.889 70.552 386.753 73.368 391.857 79C397.049 84.544 399.645 92.2 399.645 101.968V145H377.205V105.004C377.205 100.076 375.929 96.248 373.377 93.52C370.825 90.792 367.393 89.428 363.081 89.428C358.769 89.428 355.337 90.792 352.785 93.52C350.233 96.248 348.957 100.076 348.957 105.004V145H326.385V71.344H348.957V81.112C351.245 77.856 354.325 75.304 358.197 73.456C362.069 71.52 366.425 70.552 371.265 70.552ZM426.682 63.688C422.722 63.688 419.466 62.544 416.914 60.256C414.45 57.88 413.218 54.976 413.218 51.544C413.218 48.024 414.45 45.12 416.914 42.832C419.466 40.456 422.722 39.268 426.682 39.268C430.554 39.268 433.722 40.456 436.186 42.832C438.738 45.12 440.014 48.024 440.014 51.544C440.014 54.976 438.738 57.88 436.186 60.256C433.722 62.544 430.554 63.688 426.682 63.688ZM437.902 71.344V145H415.33V71.344H437.902ZM499.272 145L476.832 114.112V145H454.26V47.32H476.832V101.308L499.14 71.344H526.992L496.368 108.304L527.256 145H499.272ZM619.93 97.48C625.298 98.624 629.61 101.308 632.866 105.532C636.122 109.668 637.75 114.42 637.75 119.788C637.75 127.532 635.022 133.692 629.566 138.268C624.198 142.756 616.674 145 606.994 145H563.83V52.336H605.542C614.958 52.336 622.306 54.492 627.586 58.804C632.954 63.116 635.638 68.968 635.638 76.36C635.638 81.816 634.186 86.348 631.282 89.956C628.466 93.564 624.682 96.072 619.93 97.48ZM586.402 89.824H601.186C604.882 89.824 607.698 89.032 609.634 87.448C611.658 85.776 612.67 83.356 612.67 80.188C612.67 77.02 611.658 74.6 609.634 72.928C607.698 71.256 604.882 70.42 601.186 70.42H586.402V89.824ZM603.034 126.784C606.818 126.784 609.722 125.948 611.746 124.276C613.858 122.516 614.914 120.008 614.914 116.752C614.914 113.496 613.814 110.944 611.614 109.096C609.502 107.248 606.554 106.324 602.77 106.324H586.402V126.784H603.034ZM673.414 47.32V145H650.842V47.32H673.414ZM723.3 146.056C716.084 146.056 709.572 144.516 703.764 141.436C698.044 138.356 693.512 133.956 690.168 128.236C686.912 122.516 685.284 115.828 685.284 108.172C685.284 100.604 686.956 93.96 690.3 88.24C693.644 82.432 698.22 77.988 704.028 74.908C709.836 71.828 716.348 70.288 723.564 70.288C730.78 70.288 737.292 71.828 743.1 74.908C748.908 77.988 753.484 82.432 756.828 88.24C760.172 93.96 761.844 100.604 761.844 108.172C761.844 115.74 760.128 122.428 756.696 128.236C753.352 133.956 748.732 138.356 742.836 141.436C737.028 144.516 730.516 146.056 723.3 146.056ZM723.3 126.52C727.612 126.52 731.264 124.936 734.256 121.768C737.336 118.6 738.876 114.068 738.876 108.172C738.876 102.276 737.38 97.744 734.388 94.576C731.484 91.408 727.876 89.824 723.564 89.824C719.164 89.824 715.512 91.408 712.608 94.576C709.704 97.656 708.252 102.188 708.252 108.172C708.252 114.068 709.66 118.6 712.476 121.768C715.38 124.936 718.988 126.52 723.3 126.52ZM801.803 70.288C806.995 70.288 811.527 71.344 815.399 73.456C819.359 75.568 822.395 78.34 824.507 81.772V71.344H847.079V144.868C847.079 151.644 845.715 157.76 842.987 163.216C840.347 168.76 836.255 173.16 830.711 176.416C825.255 179.672 818.435 181.3 810.251 181.3C799.339 181.3 790.495 178.704 783.719 173.512C776.943 168.408 773.071 161.456 772.103 152.656H794.411C795.115 155.472 796.787 157.672 799.427 159.256C802.067 160.928 805.323 161.764 809.195 161.764C813.859 161.764 817.555 160.4 820.283 157.672C823.099 155.032 824.507 150.764 824.507 144.868V134.44C822.307 137.872 819.271 140.688 815.399 142.888C811.527 145 806.995 146.056 801.803 146.056C795.731 146.056 790.231 144.516 785.303 141.436C780.375 138.268 776.459 133.824 773.555 128.104C770.739 122.296 769.331 115.608 769.331 108.04C769.331 100.472 770.739 93.828 773.555 88.108C776.459 82.388 780.375 77.988 785.303 74.908C790.231 71.828 795.731 70.288 801.803 70.288ZM824.507 108.172C824.507 102.54 822.923 98.096 819.755 94.84C816.675 91.584 812.891 89.956 808.403 89.956C803.915 89.956 800.087 91.584 796.919 94.84C793.839 98.008 792.299 102.408 792.299 108.04C792.299 113.672 793.839 118.16 796.919 121.504C800.087 124.76 803.915 126.388 808.403 126.388C812.891 126.388 816.675 124.76 819.755 121.504C822.923 118.248 824.507 113.804 824.507 108.172Z" fill="#F1680D"/>
<defs>
<filter id="filter0_i_203_9" x="0" y="23.7143" width="110.351" height="143.286" filterUnits="userSpaceOnUse" color-interpolation-filters="sRGB">
<feFlood flood-opacity="0" result="BackgroundImageFix"/>
<feBlend mode="normal" in="SourceGraphic" in2="BackgroundImageFix" result="shape"/>
<feColorMatrix in="SourceAlpha" type="matrix" values="0 0 0 0 0 0 0 0 0 0 0 0 0 0 0 0 0 0 127 0" result="hardAlpha"/>
<feOffset dy="4"/>
<feGaussianBlur stdDeviation="2"/>
<feComposite in2="hardAlpha" operator="arithmetic" k2="-1" k3="1"/>
<feColorMatrix type="matrix" values="0 0 0 0 0.271198 0 0 0 0 0.839423 0 0 0 0 0.545841 0 0 0 0.6 0"/>
<feBlend mode="normal" in2="shape" result="effect1_innerShadow_203_9"/>
</filter>
</defs>
</svg>
